<?xml version="1.0" encoding="UTF-8"?>
<svg id="_レイヤー_2" data-name="レイヤー_2" xmlns="http://www.w3.org/2000/svg" viewBox="0 0 1546 155.77">
  <defs>
    <style>
      .cls-1 {
        fill: #5cadc2;
      }

      .cls-2 {
        fill: #d7d2aa;
      }

      .cls-3 {
        fill: #231815;
      }
    </style>
  </defs>
  <g id="_レイヤー_3" data-name="レイヤー_3">
    <g>
      <polygon class="cls-1" points="0 155.77 94.81 0 189.62 155.77 189.62 0 0 0 0 155.77"/>
      <polygon class="cls-2" points="189.62 0 284.42 155.77 284.42 0 189.62 0"/>
      <path class="cls-3" d="M437.03,1.74l-68.56,152.6h22.09l19.09-42.37h82.53l19.09,42.37h22.55L465.04,1.74h-28.02ZM417.87,93.76l23.71-52.61,8.43-20.72h1.37l8.88,20.72,23.71,52.61h-66.1Z"/>
      <path class="cls-3" d="M675.81,90.65c4.58-1.31,10.58-3.62,15.53-6.56,4.61-2.74,10.78-7.3,14.52-14.46,3.76-7.19,4.94-14.81,4.94-23.47,0-9.41-2.24-17.42-6.72-24.03-4.48-6.6-10.82-11.65-19.02-15.15-8.2-3.5-17.84-5.24-28.93-5.24h-76.76v152.6h20.04v-60.82h54.22c3.1-.31,42.34,60.82,42.34,60.82h22.78s-41.48-61.65-42.95-62.56v-1.14ZM599.43,77.82V19.73h56.71c11.08,0,19.51,2.32,25.28,6.95,5.77,4.64,8.66,11.95,8.66,21.98s-2.89,17.76-8.66,22.32c-5.77,4.55-14.2,6.83-25.28,6.83h-56.71Z"/>
      <polygon class="cls-3" points="808.18 1.74 746.68 1.74 746.68 19.73 808.18 19.73 808.18 154.34 827.99 154.34 827.99 19.73 889.49 19.73 889.49 1.74 827.99 1.74 808.18 1.74"/>
      <rect class="cls-3" x="928.43" y="41.6" width="20.04" height="112.75"/>
      <rect class="cls-3" x="928.43" y="1.74" width="20.04" height="25.97"/>
      <polygon class="cls-3" points="1137.06 99.68 1137.74 125.65 1136.14 125.65 1117.01 99 1042.31 1.74 1020.67 1.74 1020.67 154.34 1040.71 154.34 1040.71 57.54 1040.03 31.58 1041.62 31.58 1060.53 58 1135.23 154.34 1156.87 154.34 1156.87 1.74 1137.06 1.74 1137.06 99.68"/>
      <polygon class="cls-3" points="1230.78 1.74 1224.18 1.74 1224.18 154.34 1230.78 154.34 1244.22 154.34 1343.07 154.34 1343.07 136.35 1244.22 136.35 1244.22 86.47 1339.65 86.47 1339.65 68.7 1244.22 68.7 1244.22 19.73 1343.07 19.73 1343.07 1.74 1244.22 1.74 1230.78 1.74"/>
      <polygon class="cls-3" points="1485.1 78.28 1485.1 76.69 1546 .95 1520.13 .95 1468.96 60.96 1467.59 60.96 1416.15 .95 1390.26 .95 1450.97 75.17 1450.97 76.76 1390.26 155.61 1416.31 155.61 1467.33 91.48 1468.93 91.48 1520.13 155.61 1546 155.61 1485.1 78.28"/>
    </g>
  </g>
</svg>